<svg width="1127" height="369" viewBox="0 0 1127 369" fill="none" xmlns="http://www.w3.org/2000/svg">
<path d="M228.561 145.925C227.895 150.425 226.161 160.025 224.561 162.425C222.561 165.425 223.061 173.425 237.061 151.425C251.061 129.425 279.561 74.925 283.561 53.925C287.561 32.925 293.561 29.425 288.561 11.425C283.561 -6.575 266.561 12.925 261.061 19.925C255.561 26.925 246.061 40.425 224.561 76.925C203.061 113.425 197.561 132.425 179.561 177.425C161.561 222.425 143.061 275.425 136.061 303.925C129.061 332.425 127.561 336.425 129.061 351.425C130.561 366.425 133.061 363.925 136.061 364.925C139.061 365.925 143.561 364.925 157.061 340.925C170.561 316.925 181.061 301.925 186.561 293.425C192.061 284.925 216.061 248.925 224.561 230.425C233.061 211.925 225.561 209.925 219.061 225.925C212.561 241.925 191.061 284.425 190.061 296.925C189.061 309.425 184.561 318.925 199.561 303.925C214.561 288.925 220.061 267.925 228.561 246.925C237.061 225.925 228.561 262.925 228.561 254.925C228.561 246.925 217.061 290.925 224.561 272.925C232.061 254.925 240.561 227.925 241.061 243.425C241.561 258.925 226.061 285.425 233.561 272.925C241.061 260.425 253.561 227.425 251.061 243.425C248.561 259.425 245.061 275.425 253.061 256.425C261.061 237.425 261.061 241.425 261.061 246.925C261.061 252.425 252.061 274.925 263.561 260.925C275.061 246.925 269.061 229.925 291.561 217.425C283.561 223.007 271.561 234.925 277.561 235.925C274.561 243.425 264.061 256.925 268.561 263.425C273.061 269.925 285.561 249.425 288.561 239.925C291.561 230.425 318.061 160.425 321.561 141.425C325.061 122.425 313.061 129.425 309.061 145.925C305.061 162.425 303.561 174.425 297.561 197.925C291.561 221.425 278.561 277.925 297.561 251.925C316.561 225.925 322.061 224.425 324.561 217.425C327.061 210.425 324.061 199.425 318.061 214.925C312.061 230.425 297.561 268.925 321.561 235.925C345.561 202.925 339.061 218.425 337.061 225.925C335.061 233.425 325.061 248.925 353.561 225.925C382.061 202.925 359.561 227.925 369.561 221.425C379.561 214.925 417.061 185.925 461.061 165.925C505.061 145.925 583.561 98.925 606.561 81.925C629.561 64.925 680.061 29.925 562.061 30.925C444.061 31.925 352.061 55.425 302.561 67.425C253.061 79.425 126.561 116.925 90.5613 132.925C54.5613 148.925 -95.9387 218.425 111.061 197.925C318.061 177.425 335.061 173.425 390.061 165.925C445.061 158.425 629.061 136.925 652.561 132.925C676.061 128.925 1003.06 110.425 1036.56 114.425C1070.06 118.425 1089.06 113.425 1126.06 117.425" stroke="black" stroke-width="7"/>
</svg>
